<svg xmlns="http://www.w3.org/2000/svg" width="100" height="100" viewBox="0 0 100 100">
  <g id="Honesto-Icon" transform="translate(-953.692 -17916.691)">
    <rect id="Retângulo_1665" data-name="Retângulo 1665" width="100" height="100" transform="translate(953.692 17916.691)" fill="none"/>
    <g id="Grupo_10767" data-name="Grupo 10767" transform="translate(956.202 17919.203)">
      <path id="Caminho_9410" data-name="Caminho 9410" d="M10.862,6.5h36.98A10.365,10.365,0,0,1,58.206,16.864V43.116a10.332,10.332,0,0,1-9.673,10.293v8.847a2.947,2.947,0,0,1-4.578,2.455L27.034,53.48H10.862A10.363,10.363,0,0,1,.5,43.116V16.864A10.363,10.363,0,0,1,10.862,6.5Z" transform="translate(-0.5 4.992)" fill="none" stroke="#e00c00" stroke-linecap="round" stroke-linejoin="round" stroke-width="2"/>
      <path id="Caminho_9411" data-name="Caminho 9411" d="M46.475.5l3.9,7.9,8.713,1.266-6.3,6.145,1.488,8.678-7.793-4.1-7.793,4.1,1.488-8.678-6.3-6.145L42.578,8.4Z" transform="translate(36.321 -0.5)" fill="#e00c00" stroke="#e00c00" stroke-linecap="round" stroke-linejoin="round" stroke-width="2"/>
      <path id="Caminho_9412" data-name="Caminho 9412" d="M67.284,19.849h-41.8a10.972,10.972,0,0,0-10.972,10.97v27.8a10.94,10.94,0,0,0,10.24,10.9v9.366a3.121,3.121,0,0,0,4.846,2.6L47.514,69.585H67.284a10.97,10.97,0,0,0,10.97-10.97v-27.8A10.97,10.97,0,0,0,67.284,19.849Z" transform="translate(16.523 13.765)" fill="none" stroke="#e00c00" stroke-linecap="round" stroke-linejoin="round" stroke-width="3"/>
    </g>
  </g>
</svg>
