<svg xmlns="http://www.w3.org/2000/svg" width="100" height="100" viewBox="0 0 100 100">
  <g id="Bullseye-Icon" transform="translate(29 29)">
    <g id="Grupo_10766" data-name="Grupo 10766" transform="translate(-29 -29)">
      <rect id="Retângulo_1664" data-name="Retângulo 1664" width="100" height="100" transform="translate(0 0)" fill="none"/>
      <path id="Caminho_9404" data-name="Caminho 9404" d="M61.485,53.029a5.146,5.146,0,0,1-5.14-5.14.247.247,0,1,0-.493,0,5.146,5.146,0,0,1-5.14,5.14.247.247,0,0,0,0,.493,5.145,5.145,0,0,1,5.14,5.14.247.247,0,0,0,.493,0,5.145,5.145,0,0,1,5.14-5.14.247.247,0,1,0,0-.493Z" transform="translate(36.544 34.5)" fill="none" stroke="#e00c00" stroke-miterlimit="10" stroke-width="2"/>
      <path id="Caminho_9405" data-name="Caminho 9405" d="M17.022,8.933A7.784,7.784,0,0,1,9.247,1.157a.157.157,0,0,0-.314,0A7.784,7.784,0,0,1,1.157,8.933a.157.157,0,0,0,0,.314,7.784,7.784,0,0,1,7.776,7.776.157.157,0,0,0,.314,0,7.784,7.784,0,0,1,7.776-7.776.157.157,0,0,0,0-.314Z" transform="translate(0.724 0.724)" fill="#e00c00" stroke="#e00c00" stroke-miterlimit="10" stroke-width="2"/>
      <circle id="Elipse_871" data-name="Elipse 871" cx="34.492" cy="34.492" r="34.492" transform="translate(15.72 18.151)" fill="none" stroke="#e00c00" stroke-linecap="round" stroke-linejoin="round" stroke-width="3"/>
      <circle id="Elipse_872" data-name="Elipse 872" cx="19.71" cy="19.71" r="19.71" transform="translate(30.502 32.934)" fill="none" stroke="#e00c00" stroke-miterlimit="10" stroke-width="2"/>
      <circle id="Elipse_873" data-name="Elipse 873" cx="7.391" cy="7.391" r="7.391" transform="translate(42.821 45.252)" fill="none" stroke="#e00c00" stroke-linecap="round" stroke-linejoin="round" stroke-width="2"/>
      <path id="Caminho_9406" data-name="Caminho 9406" d="M36.5,50.929,41.354,64.5h9.264l-6.39-17.857A34.414,34.414,0,0,1,36.5,50.929Z" transform="translate(26.43 33.776)" fill="none" stroke="#e00c00" stroke-linecap="round" stroke-linejoin="round" stroke-width="2"/>
      <path id="Caminho_9407" data-name="Caminho 9407" d="M20.108,46.783,13.8,64.4h9.264l4.8-13.424A34.4,34.4,0,0,1,20.108,46.783Z" transform="translate(9.997 33.877)" fill="none" stroke="#e00c00" stroke-linecap="round" stroke-linejoin="round" stroke-width="2"/>
      <path id="Caminho_9408" data-name="Caminho 9408" d="M31.172,13.683a34.876,34.876,0,0,1,4.138.255v-3.26a4.508,4.508,0,0,0-9.016,0v3.355A34.74,34.74,0,0,1,31.172,13.683Z" transform="translate(19.04 4.469)" fill="none" stroke="#e00c00" stroke-linecap="round" stroke-linejoin="round" stroke-width="2"/>
      <g id="Grupo_10765" data-name="Grupo 10765" transform="translate(49.869 10.719)">
        <g id="Grupo_10763" data-name="Grupo 10763" transform="translate(5.609)">
          <line id="Linha_32" data-name="Linha 32" y1="34.141" x2="34.141" transform="translate(0 2.508)" fill="none" stroke="#e00c00" stroke-linecap="round" stroke-linejoin="round" stroke-width="2"/>
          <g id="Grupo_10762" data-name="Grupo 10762" transform="translate(25.121)">
            <g id="Grupo_10758" data-name="Grupo 10758">
              <line id="Linha_33" data-name="Linha 33" y1="5.756" transform="translate(0 5.759)" fill="none" stroke="#e00c00" stroke-linecap="round" stroke-linejoin="round" stroke-width="2"/>
              <line id="Linha_34" data-name="Linha 34" y1="5.756" transform="translate(2.88 2.88)" fill="none" stroke="#e00c00" stroke-linecap="round" stroke-linejoin="round" stroke-width="2"/>
              <line id="Linha_35" data-name="Linha 35" y1="5.756" transform="translate(5.759)" fill="none" stroke="#e00c00" stroke-linecap="round" stroke-linejoin="round" stroke-width="2"/>
            </g>
            <g id="Grupo_10759" data-name="Grupo 10759">
              <line id="Linha_36" data-name="Linha 36" y1="5.756" transform="translate(0 5.759)" fill="none" stroke="#e00c00" stroke-linecap="round" stroke-linejoin="round" stroke-width="2"/>
              <line id="Linha_37" data-name="Linha 37" y1="5.756" transform="translate(2.88 2.88)" fill="none" stroke="#e00c00" stroke-linecap="round" stroke-linejoin="round" stroke-width="2"/>
              <line id="Linha_38" data-name="Linha 38" y1="5.756" transform="translate(5.759)" fill="none" stroke="#e00c00" stroke-linecap="round" stroke-linejoin="round" stroke-width="2"/>
            </g>
            <g id="Grupo_10760" data-name="Grupo 10760" transform="translate(0 5.756)">
              <line id="Linha_39" data-name="Linha 39" x2="5.756" transform="translate(0 5.759)" fill="none" stroke="#e00c00" stroke-linecap="round" stroke-linejoin="round" stroke-width="2"/>
              <line id="Linha_40" data-name="Linha 40" x2="5.756" transform="translate(2.88 2.88)" fill="none" stroke="#e00c00" stroke-linecap="round" stroke-linejoin="round" stroke-width="2"/>
              <line id="Linha_41" data-name="Linha 41" x2="5.756" transform="translate(5.759)" fill="none" stroke="#e00c00" stroke-linecap="round" stroke-linejoin="round" stroke-width="2"/>
            </g>
            <g id="Grupo_10761" data-name="Grupo 10761" transform="translate(0 5.756)">
              <line id="Linha_42" data-name="Linha 42" x2="5.756" transform="translate(0 5.759)" fill="none" stroke="#e00c00" stroke-linecap="round" stroke-linejoin="round" stroke-width="2"/>
              <line id="Linha_43" data-name="Linha 43" x2="5.756" transform="translate(2.88 2.88)" fill="none" stroke="#e00c00" stroke-linecap="round" stroke-linejoin="round" stroke-width="2"/>
              <line id="Linha_44" data-name="Linha 44" x2="5.756" transform="translate(5.759)" fill="none" stroke="#e00c00" stroke-linecap="round" stroke-linejoin="round" stroke-width="2"/>
            </g>
          </g>
        </g>
        <g id="Grupo_10764" data-name="Grupo 10764" transform="translate(0 31.529)">
          <path id="Caminho_9409" data-name="Caminho 9409" d="M29.429,34.778c2.924-.348,6.129,1.326,8.412-.036a3.318,3.318,0,0,0,.916-5.295c-1.4-1.4-3.866-.131-4.734.738.869-.869,2.14-3.331.738-4.733a3.316,3.316,0,0,0-5.295.916C28.105,28.65,29.779,31.856,29.429,34.778Z" transform="translate(-28.924 -24.504)" fill="#e00c00" stroke="#e00c00" stroke-linecap="round" stroke-linejoin="round" stroke-width="2"/>
        </g>
      </g>
    </g>
  </g>
</svg>
