<svg xmlns="http://www.w3.org/2000/svg" width="100" height="100" viewBox="0 0 100 100">
  <g id="Grupo_23682" data-name="Grupo 23682" transform="translate(3874 10469)">
    <rect id="Retângulo_2210" data-name="Retângulo 2210" width="100" height="100" transform="translate(-3874 -10469)" fill="none"/>
    <g id="Travel-Icon" transform="translate(-3870.879 -10456.516)">
      <circle id="Elipse_833" data-name="Elipse 833" cx="37.91" cy="37.91" r="37.91" transform="translate(9.186)" fill="none" stroke="#e00c00" stroke-linecap="round" stroke-linejoin="round" stroke-width="3"/>
      <path id="Caminho_9267" data-name="Caminho 9267" d="M89.545,33.695c4.805,1.1,8.089,3.21,9.22,6.318,3.468,9.53-14.614,24.861-40.39,34.242s-49.482,9.261-52.95-.269C4.318,70.94,5.411,67.3,8.253,63.454" transform="translate(-5 -24.101)" fill="none" stroke="#e00c00" stroke-linecap="round" stroke-linejoin="round" stroke-width="3"/>
      <path id="Caminho_9268" data-name="Caminho 9268" d="M254.619,30.537l-4.231-6.178,6.178-4.231" transform="translate(-168.344 -15.07)" fill="none" stroke="#e00c00" stroke-linecap="round" stroke-linejoin="round" stroke-width="3"/>
      <path id="Caminho_9269" data-name="Caminho 9269" d="M32.476,104.92a37.938,37.938,0,0,0,43.852,37.446,13.359,13.359,0,0,0-.181-2.852c-.809-4.641-4.425-8.817-9.041-9.761-3.274-.669-6.805.216-9.933-.958a10.057,10.057,0,0,1-5.251-5.05,20.086,20.086,0,0,1-1.789-7.2c-.274-3.069-.213-6.236-1.317-9.113a13.945,13.945,0,0,0-6.738-7.2,20.521,20.521,0,0,0-9-2.084A38.11,38.11,0,0,0,32.476,104.92Z" transform="translate(-23.29 -67.01)" fill="none" stroke="#e00c00" stroke-linecap="round" stroke-linejoin="round" stroke-width="2"/>
      <path id="Caminho_9270" data-name="Caminho 9270" d="M141.826,54.511c1-4.611-.54-13.4,2.419-17.277s6.482-1.025,8.165-.6a11.96,11.96,0,0,1,1.4.447A37.918,37.918,0,0,0,116.345,5c-1.139,0-2.264.056-3.378.154a28.538,28.538,0,0,0-5.585,4.534,21.1,21.1,0,0,0-5.758,11.64c-.354,2.8.13,5.994,2.339,7.753,2.572,2.048,6.263,1.358,9.531,1a12.853,12.853,0,0,1,6.979.764c2.137,1.029,3.807,3.34,3.427,5.681a9.036,9.036,0,0,1-1.372,3.088c-1.764,2.95-8.168,13.767-.229,19.889S140.473,60.734,141.826,54.511Z" transform="translate(-69.249 -5)" fill="none" stroke="#e00c00" stroke-linecap="round" stroke-linejoin="round" stroke-width="2"/>
    </g>
  </g>
</svg>
