<svg xmlns="http://www.w3.org/2000/svg" width="100" height="100" viewBox="0 0 100 100">
  <g id="Grupo_23702" data-name="Grupo 23702" transform="translate(-5299 16121)">
    <g id="Elipse_868" data-name="Elipse 868" transform="translate(5359 -16121)" fill="none" stroke="#e00c00" stroke-width="3">
      <circle cx="20" cy="20" r="20" stroke="none"/>
      <circle cx="20" cy="20" r="18.5" fill="none"/>
    </g>
    <g id="Elipse_869" data-name="Elipse 869" transform="translate(5305 -16099)" fill="none" stroke="#e00c00" stroke-width="3">
      <circle cx="20" cy="20" r="20" stroke="none"/>
      <circle cx="20" cy="20" r="18.5" fill="none"/>
    </g>
    <g id="Elipse_870" data-name="Elipse 870" transform="translate(5339 -16061)" fill="none" stroke="#e00c00" stroke-width="3">
      <circle cx="20" cy="20" r="20" stroke="none"/>
      <circle cx="20" cy="20" r="18.5" fill="none"/>
    </g>
    <g id="Elipse_863" data-name="Elipse 863" transform="translate(5299 -16121)" fill="none" stroke="#e00c00" stroke-width="2">
      <circle cx="8" cy="8" r="8" stroke="none"/>
      <circle cx="8" cy="8" r="7" fill="none"/>
    </g>
    <g id="Elipse_867" data-name="Elipse 867" transform="translate(5339 -16121)" fill="none" stroke="#e00c00" stroke-width="2">
      <circle cx="8" cy="8" r="8" stroke="none"/>
      <circle cx="8" cy="8" r="7" fill="none"/>
    </g>
    <g id="Elipse_864" data-name="Elipse 864" transform="translate(5299 -16057)" fill="none" stroke="#e00c00" stroke-width="2">
      <circle cx="8" cy="8" r="8" stroke="none"/>
      <circle cx="8" cy="8" r="7" fill="none"/>
    </g>
    <g id="Elipse_865" data-name="Elipse 865" transform="translate(5315 -16041)" fill="none" stroke="#e00c00" stroke-width="2">
      <circle cx="8" cy="8" r="8" stroke="none"/>
      <circle cx="8" cy="8" r="7" fill="none"/>
    </g>
    <g id="Elipse_866" data-name="Elipse 866" transform="translate(5383 -16071)" fill="none" stroke="#e00c00" stroke-width="2">
      <circle cx="8" cy="8" r="8" stroke="none"/>
      <circle cx="8" cy="8" r="7" fill="none"/>
    </g>
    <g id="Grupo_23700" data-name="Grupo 23700">
      <path id="Caminho_9301" data-name="Caminho 9301" d="M668.613,18663.254l9.914-9.264" transform="translate(4707 -34712.223)" fill="none" stroke="#e00c00" stroke-width="2"/>
      <path id="Caminho_9302" data-name="Caminho 9302" d="M644.127,18627.494l-8.347-1.545" transform="translate(4718.356 -34736.664)" fill="none" stroke="#e00c00" stroke-width="2"/>
      <path id="Caminho_22992" data-name="Caminho 22992" d="M5331-16033l11.545-1.925" transform="translate(-1)" fill="none" stroke="#e00c00" stroke-width="2"/>
      <path id="Caminho_22993" data-name="Caminho 22993" d="M5309.148-16055l4.418-8.926" fill="none" stroke="#e00c00" stroke-width="2"/>
      <path id="Caminho_22994" data-name="Caminho 22994" d="M5315-16094.794l-5.549-12.616" fill="none" stroke="#e00c00" stroke-width="2"/>
      <path id="Caminho_22995" data-name="Caminho 22995" d="M5341.279-16083.8l21.094-7.735" transform="translate(1 -1)" fill="none" stroke="#e00c00" stroke-width="2"/>
      <path id="Caminho_22996" data-name="Caminho 22996" d="M5345-16055l-8.476-10.033" fill="none" stroke="#e00c00" stroke-width="2"/>
      <path id="Caminho_22997" data-name="Caminho 22997" d="M5365.511-16059l7.979-24.1" fill="none" stroke="#e00c00" stroke-width="2"/>
    </g>
  </g>
</svg>
