<svg xmlns="http://www.w3.org/2000/svg" width="100" height="100" viewBox="0 0 100 100">
  <g id="Sugar_Daddy_icon" data-name="Sugar Daddy icon" transform="translate(29 29)">
    <g id="Grupo_10757" data-name="Grupo 10757" transform="translate(-29 -29)">
      <g id="Grupo_10754" data-name="Grupo 10754" transform="translate(59.485 1.823)">
        <line id="Linha_28" data-name="Linha 28" y1="0.871" x2="8.701" transform="translate(18.023 29.919)" fill="none" stroke="#e00c00" stroke-linecap="round" stroke-linejoin="round" stroke-width="2"/>
        <line id="Linha_29" data-name="Linha 29" y1="4.067" x2="7.742" transform="translate(15.12 17.053)" fill="none" stroke="#e00c00" stroke-linecap="round" stroke-linejoin="round" stroke-width="2"/>
        <line id="Linha_30" data-name="Linha 30" y1="6.671" x2="5.655" transform="translate(8.805 6.571)" fill="none" stroke="#e00c00" stroke-linecap="round" stroke-linejoin="round" stroke-width="2"/>
        <line id="Linha_31" data-name="Linha 31" y1="8.303" x2="2.744" fill="none" stroke="#e00c00" stroke-linecap="round" stroke-linejoin="round" stroke-width="2"/>
      </g>
      <g id="Grupo_10756" data-name="Grupo 10756" transform="translate(23.329 15.929)">
        <path id="Caminho_9327" data-name="Caminho 9327" d="M20.8,37.551s-5.686-6.309-5.422-13.791L20.8,20.5l-2.716-9.774S67.549-.281,56.794,37.551" transform="translate(-12.201 -9.239)" fill="none" stroke="#e00c00" stroke-linecap="round" stroke-linejoin="round" stroke-width="3"/>
        <path id="Caminho_9328" data-name="Caminho 9328" d="M36.57,54.459c9.969,0,18.093-10.345,18.093-23.247s-8.124-17.34-18.093-17.34-18.052,4.774-18.052,17.34C18.518,44.114,26.6,54.459,36.57,54.459Z" transform="translate(-9.92 -5.883)" fill="#fff" stroke="#e00c00" stroke-linecap="round" stroke-linejoin="round" stroke-width="2"/>
        <path id="Caminho_9329" data-name="Caminho 9329" d="M40.945,30.589a23.687,23.687,0,0,1-3.414,4.041c-1.252,1.283-2.6,2.509-3.921,3.686-.557.521-1.084.54-1.534.088-1.928-1.814-3.805-3.6-5.655-5.436a9.427,9.427,0,0,1-2.562-4.307,4.9,4.9,0,0,1,.972-4.733,4.387,4.387,0,0,1,6.65-.121,7.5,7.5,0,0,1,.678.84c.493.605.867.628,1.431-.017a8.967,8.967,0,0,1,1.174-1.262,4.417,4.417,0,0,1,7.34,3.176A7.069,7.069,0,0,1,40.945,30.589Z" transform="translate(-6.206 0.173)" fill="#e00c00"/>
        <path id="Caminho_9330" data-name="Caminho 9330" d="M35.441,42.858a8.035,8.035,0,0,1-2.6-5.924" transform="translate(0.454 10.817)" fill="none" stroke="#e00c00" stroke-linecap="round" stroke-linejoin="round" stroke-width="2"/>
        <path id="Caminho_9331" data-name="Caminho 9331" d="M39.809,42.5A8.029,8.029,0,0,1,34.35,40.37" transform="translate(1.545 13.305)" fill="none" stroke="#707070" stroke-width="2"/>
        <path id="Caminho_9332" data-name="Caminho 9332" d="M25.519,41.6H19.06a5.529,5.529,0,0,0-5.474,6.3L13.84,49.7A21.427,21.427,0,0,0,35.059,68.134H45.345A21.427,21.427,0,0,0,66.564,49.7l.253-1.793a5.529,5.529,0,0,0-5.474-6.3H54.884" transform="translate(-13.531 14.199)" fill="none" stroke="#e00c00" stroke-linecap="round" stroke-linejoin="round" stroke-width="3"/>
        <path id="Caminho_9333" data-name="Caminho 9333" d="M25.943,40.369A8.022,8.022,0,0,1,20.484,42.5" transform="translate(-8.496 13.304)" fill="none" stroke="#707070" stroke-width="2"/>
        <path id="Caminho_9334" data-name="Caminho 9334" d="M26.247,36.934a8.028,8.028,0,0,1-2.6,5.922" transform="translate(-6.203 10.817)" fill="none" stroke="#e00c00" stroke-linecap="round" stroke-linejoin="round" stroke-width="2"/>
        <g id="Grupo_10755" data-name="Grupo 10755" transform="translate(21.747 59.804)">
          <path id="Caminho_9335" data-name="Caminho 9335" d="M32.844,50.615c.821-.631,2.334-4.417,2.083-5.428s-3.043-1.262-4.166-1.262-3.912.252-4.166,1.262,1.262,4.8,2.083,5.428A4.819,4.819,0,0,0,32.844,50.615Z" transform="translate(-25.837 -43.925)" fill="none" stroke="#e00c00" stroke-linecap="round" stroke-linejoin="round" stroke-width="2"/>
          <path id="Caminho_9336" data-name="Caminho 9336" d="M28.985,47.805,26.144,63.612h9.848L33.151,47.805A4.306,4.306,0,0,1,28.985,47.805Z" transform="translate(-26.144 -41.115)" fill="none" stroke="#e00c00" stroke-linecap="round" stroke-linejoin="round" stroke-width="2"/>
        </g>
        <path id="Caminho_9337" data-name="Caminho 9337" d="M31.341,45.672a21.276,21.276,0,0,1-6.94-6.553L20.3,42.4s2.316,7.3,7.841,11.352Z" transform="translate(-8.632 12.399)" fill="#fff" stroke="#e00c00" stroke-linecap="round" stroke-linejoin="round" stroke-width="2"/>
        <path id="Caminho_9338" data-name="Caminho 9338" d="M31.3,45.672a21.276,21.276,0,0,0,6.94-6.553L42.343,42.4S40.027,49.7,34.5,53.748Z" transform="translate(-0.665 12.399)" fill="#fff" stroke="#e00c00" stroke-linecap="round" stroke-linejoin="round" stroke-width="2"/>
      </g>
      <rect id="Retângulo_1592" data-name="Retângulo 1592" width="100" height="100" fill="none"/>
    </g>
  </g>
</svg>
